<svg width="104" height="32" viewBox="0 0 104 32" fill="none" xmlns="http://www.w3.org/2000/svg">
<path d="M0.345326 7.82951C3.44321 4.98676 6.70101 2.4718 10.2395 0.192815C11.1857 -0.420245 12.3388 0.535091 11.717 1.56435C10.8123 3.04568 9.81202 4.37011 8.71317 5.61399C16.2391 4.96395 23.8455 4.46508 31.3635 5.40508C34.3927 5.79117 37.8769 6.38479 41.1845 7.44514C41.5614 7.06324 41.9579 6.69746 42.3789 6.35821C48.1204 1.714 56.0557 1.39195 62.9996 2.80249C79.3128 6.10684 94.2488 17.1885 103.739 30.6327C104.119 31.1737 103.35 31.8195 102.949 31.288C96.1439 22.4819 87.911 15.1303 77.9898 10.0124C68.9461 5.34898 56.8563 0.98183 46.9914 5.60724C45.6007 6.25785 44.2688 7.09442 43.0925 8.1108C46.2057 9.32103 49.0443 11.0296 51.0238 13.4619C58.4667 22.6055 43.4315 31.0934 38.3246 20.9614C36.3115 16.9578 37.214 12.6167 39.6772 9.2225C39.0688 9.03407 38.4649 8.85603 37.8554 8.69298C27.5802 5.92041 16.7309 6.91632 6.29592 7.86321C5.36084 7.94662 4.85094 6.95179 5.35778 6.24903C4.68954 6.78705 4.02596 7.3354 3.37744 7.88948C6.22833 8.40583 8.76206 9.46448 11.2947 11.1858C12.3853 11.9193 11.2032 13.588 10.1079 12.844C7.23803 10.8997 4.36615 9.89313 0.910143 9.61159C-0.0291925 9.54701 -0.283481 8.39972 0.345326 7.82951ZM46.4298 23.7609C50.8167 22.9241 51.8129 19.9276 49.4494 14.7573C48.03 13.2098 46.3779 12.0043 44.4838 11.1201C43.5006 10.6254 42.4589 10.1947 41.4048 9.81949C40.6874 10.6918 40.0988 11.6562 39.6689 12.724C37.8806 17.3137 40.2079 24.6487 46.4298 23.7609Z" fill="#A9D830"/>
</svg>
